<?xml version="1.0" encoding="utf-8"?>
<!-- Generator: Adobe Illustrator 27.2.0, SVG Export Plug-In . SVG Version: 6.00 Build 0)  -->
<svg version="1.1" id="ecovis_tagline" xmlns="http://www.w3.org/2000/svg" xmlns:xlink="http://www.w3.org/1999/xlink" x="0px"
	 y="0px" viewBox="0 0 509.73 93.88" style="enable-background:new 0 0 509.73 93.88;" xml:space="preserve">
<style type="text/css">
	.st0{fill:#909090;}
	.st1{fill:#CD1432;}
</style>
<g>
	<path class="st0" d="M100.65,61.06c-0.22-0.35-0.71-0.56-1.48-0.66c-0.77-0.09-1.7-0.11-2.8-0.05c-0.44,0.06-0.86,0.04-1.27-0.07
		c-0.41-0.11-0.73-0.28-0.96-0.52c-0.24-0.24-0.32-0.48-0.26-0.73c0.03-0.38,0.35-0.67,0.96-0.89c0.61-0.22,1.59-0.34,2.94-0.37
		l2.49-0.05l0.47-0.94c0.12-0.34,0.28-0.83,0.47-1.46c0.19-0.63,0.39-1.3,0.61-2.02c0.12-0.44,0.31-1.03,0.56-1.79
		c0.25-0.75,0.52-1.55,0.8-2.4c0.28-0.85,0.53-1.61,0.75-2.28c0.22-0.68,0.36-1.15,0.42-1.43c0.12-0.28,0.3-0.76,0.52-1.43
		c0.22-0.67,0.43-1.36,0.64-2.07s0.34-1.21,0.4-1.53c0.81-2.48,1.35-4.24,1.6-5.29c0.25-1.05,0.31-1.59,0.19-1.62
		c-0.13,0-0.43,0.02-0.92,0.05c-0.49,0.03-1.02,0.07-1.6,0.12c-0.58,0.05-1.1,0.1-1.55,0.16c-0.46,0.06-0.73,0.12-0.82,0.19
		c-0.16,0.22-0.42,0.27-0.8,0.14c-0.37-0.12-0.61-0.34-0.7-0.66c-0.03-0.28-0.04-0.5-0.02-0.66s0.1-0.28,0.26-0.38
		c0.22-0.19,0.64-0.4,1.27-0.64s1.34-0.45,2.14-0.63c0.8-0.19,1.56-0.33,2.28-0.42c0.53-0.06,1.07-0.18,1.6-0.35
		c0.53-0.17,0.95-0.38,1.27-0.64c0.28-0.09,0.56-0.17,0.82-0.24c0.27-0.06,0.54-0.08,0.82-0.05c0.25,0.16,0.68,0.24,1.29,0.24
		c0.61,0,1.26-0.02,1.95-0.05c1.76-0.16,2.94-0.2,3.55-0.14c0.61,0.06,1.03,0.31,1.25,0.75c0.16,0.59,0.19,1.06,0.09,1.39
		c-0.09,0.33-0.41,0.48-0.94,0.45c-0.28,0.06-0.79,0.12-1.53,0.16c-0.74,0.05-1.51,0.09-2.33,0.12c-2.22,0.19-3.42,0.41-3.57,0.66
		c-0.13,0.12-0.23,0.25-0.31,0.37c-0.08,0.13-0.18,0.27-0.31,0.42c0.03,0.13-0.04,0.53-0.21,1.2c-0.17,0.68-0.38,1.36-0.64,2.04
		c-0.13,0.41-0.31,0.99-0.56,1.74c-0.25,0.75-0.51,1.53-0.78,2.33s-0.51,1.52-0.73,2.16c-0.22,0.64-0.37,1.07-0.47,1.29
		c-0.13,0.28-0.23,0.59-0.31,0.92c-0.08,0.33-0.13,0.57-0.16,0.73c-0.44,1.54-0.82,2.84-1.15,3.9c-0.33,1.07-0.63,2-0.89,2.8
		c-0.27,0.8-0.51,1.57-0.73,2.3c-0.22,0.74-0.46,1.54-0.71,2.42c0.97-0.09,1.86-0.17,2.68-0.23c1.47-0.16,2.53-0.25,3.17-0.28
		c0.64-0.03,1.07,0.01,1.29,0.12c0.22,0.11,0.37,0.31,0.47,0.59c0.63,0.85,0.7,1.42,0.23,1.74c-0.47,0.31-1.58,0.45-3.34,0.42
		c-1.63,0.06-2.88,0.12-3.74,0.16c-0.86,0.05-1.46,0.12-1.79,0.21s-0.53,0.25-0.59,0.47c0,0.25-0.13,0.37-0.38,0.37
		C101.34,61.25,101.03,61.18,100.65,61.06z"/>
	<path class="st0" d="M131.3,57.44c-0.63,0-1.15-0.13-1.55-0.4c-0.41-0.27-0.75-0.71-1.03-1.34c-0.13-0.44-0.23-0.93-0.31-1.48
		c-0.08-0.55-0.12-1.07-0.12-1.55c0-0.49,0.05-0.81,0.14-0.96c0.13-0.12,0.18-0.35,0.16-0.68c-0.02-0.33-0.02-0.68-0.02-1.06
		c-0.03-0.63-0.18-0.98-0.45-1.06c-0.27-0.08-0.65,0.02-1.15,0.31c-0.56,0.34-1.3,0.81-2.21,1.39c-0.91,0.58-1.86,1.21-2.84,1.9
		c-0.99,0.69-1.92,1.41-2.8,2.16c-0.69,0.75-1.1,1.32-1.25,1.72c-0.14,0.39-0.34,0.59-0.59,0.59c-0.25,0.12-0.46,0.13-0.64,0.02
		c-0.17-0.11-0.42-0.29-0.73-0.54c-0.22-0.25-0.44-0.49-0.66-0.73c-0.22-0.23-0.36-0.41-0.42-0.54c0-0.16,0.05-0.49,0.14-0.99
		c0.09-0.5,0.21-1,0.35-1.51c0.14-0.5,0.24-0.83,0.31-0.99c0.15,0,0.29-0.16,0.4-0.47c0.11-0.31,0.29-0.66,0.54-1.03
		c0.06-0.38,0.23-0.89,0.49-1.53c0.27-0.64,0.51-1.21,0.73-1.72c0.44-0.75,0.74-1.38,0.92-1.88c0.17-0.5,0.29-1.13,0.35-1.88
		c-0.03-0.12,0-0.24,0.09-0.35c0.09-0.11,0.2-0.16,0.33-0.16c0.25-0.25,0.55-0.32,0.89-0.21c0.34,0.11,0.66,0.35,0.94,0.73
		c0.56,0.75,0.79,1.53,0.68,2.33c-0.11,0.8-0.62,1.94-1.53,3.41c-0.22,0.5-0.38,0.89-0.49,1.15c-0.11,0.27-0.16,0.48-0.16,0.64
		c0.66-0.44,1.2-0.81,1.62-1.1c0.42-0.3,0.76-0.53,1.01-0.68c0.16-0.16,0.52-0.44,1.08-0.85c0.56-0.41,1.17-0.81,1.81-1.2
		c0.64-0.39,1.12-0.62,1.43-0.68c0.25-0.12,0.52-0.24,0.8-0.35c0.28-0.11,0.49-0.16,0.61-0.16c0.25,0,0.57,0.13,0.96,0.4
		c0.39,0.27,0.76,0.58,1.11,0.94c0.34,0.36,0.55,0.67,0.61,0.92c0,0.13,0.01,0.25,0.02,0.38c0.02,0.12,0.04,0.25,0.07,0.37
		c0.13,0.41,0.2,0.96,0.21,1.65c0.02,0.69-0.01,1.32-0.07,1.88c-0.06,0.56-0.17,0.89-0.33,0.99c0.03,0.16,0.11,0.24,0.24,0.24
		c0,0.12,0,0.2,0,0.23c-0.16,0-0.22,0.13-0.19,0.4c0.03,0.27,0.13,0.56,0.3,0.87s0.35,0.56,0.54,0.75c0.38,0.38,0.53,0.73,0.47,1.06
		S131.8,57.31,131.3,57.44z"/>
	<path class="st0" d="M140.28,59.18c-0.78,0.06-1.53,0.02-2.23-0.14c-0.71-0.16-1.3-0.43-1.79-0.82c-0.49-0.39-0.82-0.87-1.01-1.43
		c-0.22-0.44-0.33-0.74-0.33-0.92s0.11-0.32,0.33-0.45c0.25,0,0.48,0.07,0.68,0.21c0.2,0.14,0.48,0.29,0.82,0.45
		c0.47,0.41,1.04,0.63,1.72,0.66c0.67,0.03,1.29-0.08,1.86-0.33s0.88-0.56,0.94-0.94c0-0.12-0.05-0.34-0.14-0.66
		c-0.09-0.31-0.2-0.64-0.33-0.99c-0.85-1.19-1.47-2.37-1.86-3.55c-0.39-1.18-0.59-2.14-0.59-2.89c0-0.56,0.17-1.17,0.52-1.81
		s0.81-1.18,1.41-1.62c0.56-0.59,1.19-1.13,1.88-1.6c0.69-0.47,1.39-0.88,2.09-1.22c0.71-0.34,1.34-0.59,1.9-0.75
		c0.34,0,0.8,0.05,1.36,0.14c0.56,0.09,0.96,0.2,1.17,0.33c0.35,0.13,0.68,0.46,0.99,1.01c0.31,0.55,0.47,1.09,0.47,1.62
		c0,0.22-0.06,0.5-0.19,0.85c-0.13,0.34-0.33,0.75-0.61,1.22c-0.12,0.34-0.27,0.67-0.42,0.96c-0.16,0.3-0.24,0.51-0.24,0.63
		c-0.16,0.35-0.37,0.51-0.63,0.49c-0.27-0.02-0.53-0.15-0.8-0.42c-0.27-0.27-0.48-0.59-0.64-0.96c-0.13-0.47-0.17-0.85-0.14-1.15
		c0.03-0.3,0.16-0.62,0.38-0.96c0.34-0.34,0.52-0.58,0.52-0.7c0-0.12-0.17-0.19-0.52-0.19c-0.22,0-0.62,0.13-1.2,0.4
		c-0.58,0.27-1.19,0.61-1.83,1.03c-0.64,0.42-1.2,0.87-1.67,1.34c-0.59,0.56-0.95,0.97-1.06,1.22c-0.11,0.25-0.16,0.64-0.16,1.17
		c0,0.44,0.1,0.99,0.31,1.64c0.2,0.66,0.42,1.1,0.64,1.32c0.44,0.85,0.81,1.51,1.13,1.97c0.91,2.01,1.14,3.45,0.7,4.32
		C143.27,58.55,142.13,59.05,140.28,59.18z"/>
	<path class="st0" d="M149.77,70.08c-0.22-0.09-0.45-0.25-0.7-0.47c-0.25-0.22-0.46-0.46-0.61-0.73c-0.16-0.27-0.24-0.49-0.24-0.68
		c0-0.19,0.08-0.68,0.24-1.48s0.37-1.77,0.64-2.91c0.27-1.15,0.56-2.3,0.89-3.48c0.33-1.17,0.67-2.22,1.01-3.13
		c0.06-0.16,0.27-0.68,0.64-1.58c0.36-0.89,0.71-1.98,1.06-3.27c0.25-0.81,0.58-1.74,0.99-2.77c0.41-1.03,0.83-2.08,1.27-3.13
		c0.44-1.05,0.8-1.98,1.08-2.8c0.28-0.81,0.52-1.48,0.73-2c0.2-0.52,0.32-0.84,0.35-0.96c0.06-0.19,0.16-0.35,0.31-0.49
		c0.14-0.14,0.29-0.27,0.45-0.37c0.16-0.11,0.28-0.18,0.38-0.21c0.56-0.16,1.05,0.08,1.46,0.71c0.16,0.28,0.19,0.61,0.09,0.99
		s-0.27,0.85-0.52,1.41l-0.33,0.94l1.69-0.38c0.28,0,0.64,0.01,1.06,0.02c0.42,0.02,0.84,0.02,1.25,0.02c0.41,0,0.7,0.03,0.89,0.09
		c0.75,0.03,1.28,0.17,1.58,0.42c0.3,0.25,0.55,0.58,0.77,0.99c0.16,0.16,0.34,0.37,0.56,0.64c0.22,0.27,0.34,0.52,0.38,0.77
		c0.12,0.53,0.13,1.11,0.02,1.72c-0.11,0.61-0.3,1.22-0.56,1.81c-0.27,0.59-0.61,1.14-1.03,1.62c-0.42,0.49-0.87,0.89-1.34,1.2
		c-0.31,0.13-0.72,0.33-1.22,0.61c-0.03,0.16-0.37,0.4-1.03,0.73c-0.66,0.33-1.41,0.63-2.26,0.92c-0.85,0.28-1.58,0.47-2.21,0.56
		c-0.22,0.03-0.53,0.06-0.94,0.09c-0.41,0.03-0.72-0.02-0.94-0.14c-0.35-0.06-0.58-0.09-0.71-0.09c-0.13,0-0.19,0.06-0.19,0.19
		c-0.03,0.06-0.25,0.72-0.66,1.98c-0.41,1.25-0.83,2.71-1.27,4.37c-0.59,1.82-1.08,3.27-1.46,4.35c-0.37,1.08-0.67,1.89-0.87,2.42
		c-0.2,0.53-0.35,0.9-0.45,1.11C149.91,69.89,149.83,70.02,149.77,70.08z M155.65,52.74c0.09,0.19,0.4,0.24,0.92,0.16
		c0.52-0.08,1.14-0.27,1.88-0.56c0.73-0.3,1.46-0.64,2.18-1.03c0.72-0.39,1.32-0.79,1.79-1.2c0.69-0.78,1.25-1.51,1.69-2.19
		c0.44-0.67,0.5-1.12,0.19-1.34c-0.34-0.5-0.99-0.73-1.93-0.7c-0.94,0.03-2.1,0.42-3.48,1.17c-0.53,0.19-0.93,0.43-1.2,0.73
		c-0.27,0.3-0.49,0.67-0.68,1.11c-0.19,0.44-0.42,0.97-0.71,1.6c-0.28,0.69-0.47,1.21-0.56,1.55
		C155.65,52.38,155.62,52.61,155.65,52.74z"/>
	<path class="st0" d="M170.12,58.1c-0.25-0.25-0.43-0.56-0.54-0.94c-0.11-0.38-0.15-0.75-0.12-1.13c0.03-0.37,0.11-0.69,0.24-0.94
		c0-0.25,0.04-0.45,0.12-0.59c0.08-0.14,0.1-0.28,0.07-0.4c-0.03-0.13,0-0.34,0.09-0.66c0.09-0.31,0.19-0.61,0.28-0.89
		c0.22-0.5,0.45-1.11,0.7-1.81c0.25-0.7,0.49-1.4,0.71-2.09c0.22-0.69,0.41-1.29,0.56-1.79c0.16-0.5,0.25-0.81,0.28-0.94
		c0-0.37,0.25-0.58,0.75-0.61c0.37-0.12,0.66-0.13,0.85-0.02c0.19,0.11,0.44,0.42,0.75,0.92c0.25,0.25,0.34,0.63,0.28,1.13
		c-0.06,0.5-0.27,1.13-0.61,1.88c-0.13,0.25-0.28,0.61-0.45,1.08c-0.17,0.47-0.29,0.89-0.35,1.27c-0.12,0.25-0.27,0.6-0.45,1.06
		c-0.17,0.46-0.32,0.89-0.45,1.29c-0.06,0.16-0.12,0.38-0.19,0.68c-0.06,0.3-0.14,0.61-0.24,0.94c-0.09,0.33-0.22,0.62-0.37,0.87
		c-0.28,1.29-0.54,2.04-0.78,2.26C171.04,58.88,170.66,58.69,170.12,58.1z M174.68,39.01c-0.16-0.16-0.3-0.38-0.42-0.68
		c-0.13-0.3-0.2-0.58-0.24-0.85c-0.03-0.27,0-0.4,0.09-0.4c0.25-0.03,0.55-0.3,0.89-0.8c0.34-0.5,0.49-0.94,0.42-1.32
		c0-0.12,0.05-0.24,0.14-0.35s0.2-0.18,0.33-0.21c0.37-0.25,0.74-0.29,1.1-0.12c0.36,0.17,0.7,0.51,1.01,1.01
		c0.28,0.6,0.36,1.09,0.24,1.48c-0.13,0.39-0.47,0.93-1.03,1.62c-0.47,0.63-0.9,0.97-1.29,1.03
		C175.54,39.5,175.12,39.36,174.68,39.01z"/>
	<path class="st0" d="M179.29,57.96c-0.28-0.22-0.48-0.44-0.59-0.66c-0.11-0.22-0.12-0.64-0.02-1.27c0.09-0.88,0.22-1.65,0.38-2.33
		c0.15-0.67,0.34-1.45,0.56-2.33c0.06-0.37,0.24-1.02,0.54-1.93c0.3-0.91,0.67-1.9,1.11-2.96c0.44-1.07,0.88-2.08,1.32-3.03
		c0.44-0.95,0.81-1.67,1.13-2.14c0.25-0.19,0.55-0.27,0.92-0.24c0.36,0.03,0.67,0.17,0.92,0.42c0.34,0.28,0.4,0.78,0.16,1.48
		c-0.24,0.71-0.71,1.81-1.43,3.31c-0.38,0.85-0.66,1.48-0.85,1.9c-0.19,0.42-0.27,0.68-0.24,0.75c0.03,0.08,0.17,0.04,0.42-0.12
		c0.19-0.34,0.53-0.74,1.03-1.2c0.5-0.45,1.03-0.9,1.6-1.34c0.56-0.44,1.1-0.83,1.6-1.17c0.5-0.35,0.85-0.56,1.03-0.66
		c0.25-0.16,0.54-0.29,0.87-0.4c0.33-0.11,0.55-0.2,0.68-0.26c0.72-0.34,1.46-0.47,2.21-0.37s1.22,0.37,1.41,0.85
		c0.03,0.25,0.22,0.5,0.56,0.75c0.13,0,0.2,0.1,0.24,0.28c0,0.22-0.16,0.35-0.49,0.4c-0.33,0.05-0.74,0.09-1.25,0.12
		c-0.41,0.03-0.77,0.11-1.08,0.24c-0.31,0.13-0.69,0.28-1.13,0.47c-1.19,0.69-2.33,1.36-3.41,2.02s-2.12,1.54-3.13,2.63
		c-0.22,0.25-0.44,0.55-0.66,0.89c-0.22,0.34-0.46,0.72-0.71,1.13c-0.16,0.16-0.31,0.5-0.47,1.03c-0.16,0.53-0.29,1.04-0.4,1.53
		c-0.11,0.49-0.16,0.78-0.16,0.87c-0.19,0.59-0.39,1.03-0.61,1.32c-0.38,0.5-0.69,0.75-0.94,0.75S179.79,58.46,179.29,57.96z"/>
	<path class="st0" d="M197.67,58.14c-0.47-0.06-0.87-0.4-1.2-1.01c-0.33-0.61-0.53-1.17-0.59-1.67c0.03-0.25,0.07-0.61,0.12-1.08
		s0.1-0.96,0.16-1.46c0.12-0.59,0.3-1.32,0.52-2.19c0.22-0.86,0.45-1.73,0.68-2.61c0.24-0.88,0.45-1.63,0.63-2.26
		c0.19-0.63,0.31-1,0.38-1.13c0.16-0.25,0.41-0.31,0.75-0.19c0.34,0.12,0.63,0.31,0.85,0.56c0.19,0.25,0.3,0.55,0.35,0.89
		c0.05,0.34,0,0.85-0.14,1.5s-0.4,1.63-0.77,2.91c-0.35,1.25-0.6,2.26-0.78,3.03s-0.24,1.57-0.21,2.42
		c-0.13,1.07-0.22,1.72-0.28,1.95C198.08,58.07,197.92,58.18,197.67,58.14z M203.08,39.39c-0.13,0.09-0.24,0.13-0.35,0.12
		c-0.11-0.02-0.29-0.1-0.54-0.26c-0.22-0.03-0.49-0.18-0.82-0.45c-0.33-0.27-0.61-0.55-0.85-0.85c-0.24-0.3-0.35-0.48-0.35-0.54
		c-0.03-0.31-0.01-0.71,0.07-1.2c0.08-0.48,0.24-0.92,0.49-1.32c0.25-0.39,0.61-0.6,1.08-0.63c0.12,0,0.24,0.02,0.33,0.05
		c0.09,0.03,0.38,0.14,0.85,0.33c0.25,0.47,0.5,0.99,0.75,1.57c0.25,0.58,0.36,1.15,0.33,1.69
		C204.03,38.46,203.7,38.95,203.08,39.39z"/>
	<path class="st0" d="M218.68,59.04c-0.31,0-0.64-0.17-0.96-0.52c-0.33-0.34-0.61-0.78-0.85-1.29c-0.24-0.52-0.35-1.01-0.35-1.48
		s0.12-1.35,0.35-2.63c0.24-1.29,0.52-2.59,0.87-3.9c0.25-0.81,0.33-1.29,0.24-1.41c-0.1-0.12-0.52,0.05-1.27,0.52
		c-0.44,0.22-0.83,0.45-1.17,0.68c-0.35,0.24-0.64,0.49-0.89,0.78c-0.16,0.12-0.39,0.33-0.71,0.61c-0.31,0.28-0.64,0.55-0.99,0.8
		c-0.41,0.31-0.93,0.75-1.55,1.32c-0.63,0.56-1.25,1.13-1.86,1.69c-0.61,0.56-1.07,1-1.39,1.32c-0.06,0.13-0.16,0.24-0.28,0.33
		c-0.13,0.09-0.27,0.15-0.42,0.16c-0.16,0.02-0.33-0.01-0.52-0.07c-0.34-0.09-0.67-0.3-0.96-0.61c-0.3-0.31-0.45-0.68-0.45-1.08
		c0-0.31,0.12-0.85,0.37-1.62c0.25-0.77,0.59-1.7,1.01-2.8c0.42-1.1,0.92-2.26,1.48-3.48c0.09-0.16,0.17-0.35,0.24-0.59
		s0.12-0.49,0.16-0.77c0.05-0.28,0.07-0.55,0.07-0.8c0-0.16,0.02-0.32,0.07-0.49c0.05-0.17,0.11-0.34,0.19-0.52
		c0.08-0.17,0.15-0.29,0.21-0.35c0.12-0.25,0.34-0.32,0.66-0.21c0.31,0.11,0.58,0.34,0.8,0.68c0.47,0.44,0.71,0.99,0.73,1.64
		s-0.15,1.47-0.49,2.44c-0.12,0.22-0.23,0.43-0.3,0.64c-0.08,0.2-0.15,0.38-0.21,0.52c-0.06,0.14-0.13,0.29-0.19,0.45
		c0.12,0,0.41-0.14,0.85-0.42c0.44-0.28,0.96-0.59,1.55-0.94c0.47-0.34,0.89-0.67,1.25-0.96c0.36-0.3,0.67-0.53,0.92-0.7
		c0.25-0.17,0.41-0.26,0.47-0.26c0.13,0,0.28-0.05,0.47-0.14c0.19-0.09,0.34-0.2,0.47-0.33c0.12-0.13,0.27-0.2,0.42-0.24
		c0.25-0.03,0.44-0.11,0.56-0.24c0.25-0.19,0.58-0.24,0.99-0.16s0.78,0.24,1.13,0.49c0.34,0.25,0.52,0.53,0.52,0.85
		c0,0.13,0.08,0.27,0.24,0.42c0.25,0,0.42,0.39,0.49,1.17c0.08,0.78-0.01,1.54-0.26,2.26c0,0.47-0.09,1.03-0.26,1.69
		c-0.17,0.66-0.32,1.29-0.45,1.88c-0.25,0.78-0.42,1.47-0.52,2.07c-0.09,0.59-0.11,1.1-0.05,1.5c0.06,0.41,0.17,0.74,0.33,0.99
		c0.13,0.22,0.13,0.46,0,0.73C219.31,58.9,219.06,59.04,218.68,59.04z"/>
	<path class="st0" d="M231.04,68.58c-0.59,0.25-1.25,0.34-1.95,0.26c-0.71-0.08-1.4-0.29-2.07-0.64c-0.67-0.34-1.28-0.77-1.81-1.27
		c-0.22-0.22-0.45-0.56-0.68-1.01c-0.24-0.45-0.41-0.89-0.52-1.29c-0.11-0.41-0.1-0.64,0.02-0.71c0.12-0.09,0.3-0.13,0.52-0.09
		c0.22,0.03,0.43,0.09,0.64,0.16c0.2,0.08,0.3,0.18,0.3,0.31c0.19,0.15,0.52,0.4,0.99,0.73c0.47,0.33,0.83,0.52,1.08,0.59
		c0.66,0.22,1.14,0.31,1.46,0.28c0.31-0.03,0.59-0.14,0.85-0.33c0.5-0.44,0.89-0.97,1.17-1.6c0.28-0.63,0.58-1.49,0.89-2.59
		l0.14-0.61c0.25-1.16,0.53-2.4,0.85-3.71c0.31-1.32,0.58-2.35,0.8-3.1c0.16-0.72,0.21-1.21,0.16-1.46c-0.05-0.25-0.2-0.2-0.45,0.14
		c-0.13,0.03-0.29,0.09-0.49,0.19c-0.2,0.09-0.43,0.2-0.68,0.33c-0.37,0.19-0.75,0.37-1.13,0.54c-0.38,0.17-0.69,0.29-0.94,0.35
		c-0.25,0-0.59,0.02-1.03,0.05c-0.25,0.16-0.7,0.13-1.34-0.07c-0.64-0.2-1.21-0.51-1.72-0.92c-0.28-0.38-0.49-0.67-0.61-0.87
		c-0.12-0.2-0.2-0.42-0.23-0.66c-0.03-0.24-0.05-0.6-0.05-1.11c-0.03-0.5,0.21-1.23,0.73-2.19c0.52-0.95,1.15-1.86,1.9-2.7
		c0.59-0.59,1.36-1.21,2.3-1.83c0.94-0.63,1.89-1.14,2.84-1.55c0.96-0.41,1.75-0.59,2.37-0.56c0.31,0.03,0.61,0.07,0.89,0.12
		c0.28,0.05,0.59,0.2,0.94,0.45c0.44,0.22,0.75,0.46,0.94,0.71c0.19,0.25,0.44,0.74,0.75,1.46c0.19,0.5,0.33,1,0.42,1.48
		s0.14,0.95,0.14,1.39c0,0.47-0.06,0.89-0.19,1.27c-0.12,0.38-0.3,0.68-0.52,0.89c-0.06,0-0.13,0.01-0.21,0.02
		c-0.08,0.02-0.15,0.04-0.21,0.07c-0.19,0.06-0.35,0.09-0.47,0.09c-0.09,0-0.2,0.1-0.33,0.31c-0.13,0.2-0.22,0.46-0.28,0.78
		c-0.03,0.19-0.07,0.37-0.12,0.56c-0.05,0.19-0.1,0.36-0.16,0.52c-0.06,0.16-0.12,0.29-0.16,0.4c-0.05,0.11-0.07,0.2-0.07,0.26
		c0,0.09-0.02,0.17-0.05,0.24c-0.03,0.06-0.08,0.14-0.14,0.24c-0.09,0.16-0.18,0.35-0.26,0.59c-0.08,0.24-0.12,0.48-0.12,0.73
		l-0.19,0.52c-0.09,0.31-0.18,0.6-0.26,0.85c-0.08,0.25-0.12,0.41-0.12,0.47l-0.19,0.94c-0.06,0.22-0.13,0.42-0.21,0.59
		c-0.08,0.17-0.15,0.42-0.21,0.75c-0.06,0.33-0.14,0.85-0.24,1.57c-0.63,2.7-1.25,4.72-1.88,6.09
		C232.25,67.33,231.64,68.2,231.04,68.58z M227.8,51.52c0.81,0.31,1.66,0.34,2.54,0.09c0.88-0.25,1.88-0.81,3.01-1.69
		c0.72-0.53,1.32-1.15,1.81-1.86c0.49-0.71,0.84-1.43,1.06-2.19c0.16-0.47,0.2-0.81,0.14-1.01c-0.06-0.2-0.27-0.32-0.61-0.35
		c-0.53-0.12-1.21-0.04-2.02,0.26c-0.81,0.3-1.64,0.71-2.49,1.25c-0.16,0.22-0.35,0.42-0.56,0.61c-0.22,0.19-0.5,0.39-0.85,0.61
		c-0.03,0.06-0.07,0.14-0.12,0.23c-0.05,0.1-0.13,0.17-0.26,0.24c-0.31,0.28-0.63,0.71-0.94,1.27c-0.31,0.56-0.54,1.1-0.68,1.6
		C227.68,51.08,227.68,51.39,227.8,51.52z"/>
	<path class="st0" d="M258.54,58.8c-0.63-0.06-1.01-0.14-1.15-0.24c-0.14-0.09-0.3-0.34-0.49-0.75c-0.25-0.28-0.4-0.5-0.45-0.66
		c-0.05-0.16-0.06-0.3-0.02-0.42c0.15,0,0.3-0.01,0.42-0.02c0.12-0.02,0.2-0.07,0.24-0.16c0-0.1,0.05-0.16,0.16-0.19
		c0.11-0.03,0.23-0.03,0.35,0c0.59,0.03,1.35-0.16,2.28-0.59c0.92-0.42,1.93-1.02,3.01-1.79c1.08-0.77,2.14-1.62,3.17-2.56
		c0.81-1.07,1.41-1.91,1.79-2.52c0.37-0.61,0.59-1.11,0.66-1.5c0.06-0.39,0.02-0.73-0.14-1.01c-0.13-0.25-0.58-0.35-1.36-0.31
		c-0.78,0.05-1.66,0.38-2.63,1.01c-1.35,0.85-2.43,1.63-3.24,2.35c-0.81,0.72-1.57,1.54-2.26,2.44c-0.25,0.31-0.49,0.69-0.73,1.13
		c-0.24,0.44-0.51,0.97-0.82,1.6c0,0.13-0.18,0.28-0.54,0.47c-0.36,0.19-0.67,0.28-0.92,0.28c-0.13-0.06-0.29-0.18-0.49-0.35
		c-0.2-0.17-0.34-0.4-0.4-0.68c-0.22-0.15-0.38-0.28-0.47-0.37s-0.16-0.2-0.19-0.33c-0.03-0.19,0.02-0.49,0.14-0.89
		c0.13-0.41,0.3-1.05,0.52-1.93c0.19-0.81,0.4-1.66,0.64-2.54c0.23-0.88,0.46-1.63,0.68-2.26c0.22-0.63,0.37-0.97,0.47-1.03
		c0.25-0.56,0.37-1.03,0.37-1.41c0.06-0.38,0.16-0.71,0.31-0.99c0.14-0.28,0.21-0.48,0.21-0.61c0.12-0.09,0.31-0.47,0.56-1.13
		c0.25-0.66,0.56-1.52,0.94-2.59c0-0.09,0.11-0.4,0.33-0.92c0.22-0.52,0.49-1.13,0.8-1.83c0.31-0.71,0.64-1.44,0.96-2.21
		c0.33-0.77,0.6-1.45,0.82-2.04c0.37-0.53,0.67-1.03,0.87-1.48c0.2-0.46,0.42-0.73,0.64-0.82c0.16-0.03,0.35-0.02,0.59,0.02
		c0.24,0.05,0.47,0.13,0.71,0.26c0.24,0.13,0.43,0.31,0.59,0.56c0.09,0.16,0.16,0.3,0.19,0.42c0.03,0.13-0.02,0.35-0.14,0.68
		c-0.13,0.33-0.37,0.88-0.73,1.65c-0.36,0.77-0.89,1.87-1.57,3.31c-0.88,1.88-1.6,3.56-2.16,5.03c-0.56,1.47-1.03,2.77-1.41,3.9
		c-0.38,1.13-0.72,2.1-1.03,2.91l-0.24,1.03l1.18-1.13c0.47-0.34,0.99-0.77,1.55-1.27c0.56-0.5,1.06-0.94,1.5-1.32
		c0.25-0.19,0.59-0.38,1.01-0.59c0.42-0.2,0.84-0.38,1.25-0.54c0.41-0.16,0.7-0.25,0.89-0.28c0.09-0.03,0.33-0.08,0.7-0.14
		c0.38-0.06,0.83-0.09,1.36-0.09c0.69,0,1.25,0.16,1.67,0.47c0.42,0.31,0.84,0.81,1.25,1.5c0.34,0.66,0.49,1.4,0.42,2.23
		c-0.06,0.83-0.31,1.61-0.75,2.33c-0.16,0.13-0.31,0.29-0.47,0.49c-0.16,0.2-0.24,0.37-0.24,0.49c-0.03,0.22-0.31,0.67-0.85,1.34
		c-0.53,0.67-1.07,1.31-1.6,1.9c-0.56,0.6-1.25,1.18-2.07,1.76c-0.81,0.58-1.62,1.1-2.42,1.55c-0.8,0.45-1.48,0.77-2.04,0.96
		c-0.25,0.03-0.61,0.09-1.08,0.16C259.15,58.67,258.79,58.74,258.54,58.8z"/>
	<path class="st0" d="M277.06,58.47c-1.22-0.5-2.01-1.2-2.37-2.09c-0.36-0.89-0.43-2.28-0.21-4.16c0.06-0.97,0.09-1.61,0.09-1.93
		c0-0.31-0.17-0.63-0.52-0.94c-0.09-0.12-0.26-0.3-0.49-0.52c-0.24-0.22-0.34-0.41-0.31-0.56c-0.03-0.22-0.02-0.46,0.05-0.73
		c0.06-0.27,0.16-0.4,0.28-0.4c0.13,0,0.26-0.03,0.4-0.09c0.14-0.06,0.27-0.06,0.4,0c0.12,0,0.27,0.02,0.42,0.05
		c0.16,0.03,0.24,0.11,0.24,0.24c0.12,0.22,0.33,0.24,0.61,0.07c0.28-0.17,0.58-0.57,0.89-1.2c0.31-0.5,0.73-1,1.25-1.51
		c0.52-0.5,1.03-0.96,1.55-1.39c0.52-0.42,0.95-0.73,1.29-0.92c0.15-0.06,0.39-0.14,0.7-0.24s0.65-0.17,1.01-0.24
		c0.36-0.06,0.67-0.08,0.92-0.05c0.56,0.03,1.04,0.19,1.43,0.47c0.39,0.28,0.76,0.61,1.1,0.99c0.41,0.28,0.67,0.66,0.78,1.13
		c0.11,0.47,0.13,0.97,0.07,1.5c-0.06,0.53-0.2,1.02-0.42,1.46c-0.09,0.31-0.36,0.69-0.8,1.13c-0.44,0.44-0.94,0.86-1.5,1.27
		c-0.56,0.41-1.08,0.71-1.55,0.89c-0.41,0.09-0.93,0.17-1.57,0.24c-0.64,0.06-1.24,0.09-1.79,0.07c-0.55-0.02-0.92-0.07-1.11-0.16
		c-0.22-0.12-0.39,0.05-0.52,0.52c-0.13,0.47-0.22,1.14-0.28,2.02c-0.06,0.69-0.06,1.19,0,1.5c0.06,0.31,0.13,0.53,0.19,0.66
		c0.22,0.22,0.52,0.5,0.92,0.82c0.39,0.33,0.95,0.38,1.67,0.16c0.6-0.16,1.18-0.56,1.76-1.22s1.12-1.19,1.62-1.6
		c0.12-0.22,0.34-0.35,0.64-0.4c0.3-0.05,0.62-0.02,0.96,0.07c0.34,0.22,0.49,0.48,0.45,0.77c-0.05,0.3-0.21,0.75-0.49,1.34
		c-0.09,0.22-0.31,0.49-0.64,0.82s-0.69,0.66-1.08,0.99c-0.39,0.33-0.74,0.59-1.06,0.78c-0.94,0.5-1.82,0.76-2.63,0.77
		C278.6,58.89,277.82,58.76,277.06,58.47z M279.84,48.93c0.69-0.16,1.24-0.27,1.64-0.33c0.41-0.06,0.8-0.24,1.17-0.54
		c0.38-0.3,0.85-0.87,1.41-1.72c0.12-0.35,0.16-0.69,0.12-1.03c-0.05-0.34-0.13-0.58-0.26-0.71c-0.28-0.31-0.62-0.42-1.01-0.3
		c-0.39,0.11-0.76,0.29-1.11,0.54c-0.22,0.09-0.54,0.32-0.96,0.68c-0.42,0.36-0.84,0.77-1.25,1.22c-0.41,0.46-0.74,0.87-0.99,1.25
		c-0.25,0.37-0.31,0.59-0.19,0.66c-0.06,0.12,0.12,0.2,0.54,0.24C279.39,48.91,279.68,48.93,279.84,48.93z"/>
	<path class="st0" d="M294.93,59.51c-0.44-0.12-0.8-0.27-1.08-0.45c-0.28-0.17-0.66-0.46-1.13-0.87c-0.38-0.5-0.67-0.97-0.87-1.41
		c-0.2-0.44-0.34-0.95-0.4-1.53c-0.06-0.58-0.09-1.32-0.09-2.23c0-0.37,0.07-0.94,0.21-1.69c0.14-0.75,0.31-1.54,0.52-2.37
		c0.2-0.83,0.39-1.58,0.56-2.23c0.17-0.66,0.27-1.08,0.3-1.27c0.1-0.41-0.06-0.64-0.47-0.71c-0.41-0.06-0.85-0.09-1.34-0.07
		c-0.49,0.02-0.81-0.02-0.96-0.12c-0.12-0.03-0.19-0.13-0.19-0.28c0-0.12-0.01-0.21-0.02-0.26c-0.02-0.05-0.07-0.15-0.16-0.31
		c-0.06-0.12-0.02-0.3,0.12-0.54c0.14-0.24,0.38-0.38,0.73-0.45c0.28-0.06,0.67-0.12,1.15-0.16c0.49-0.05,0.98-0.16,1.48-0.33
		s0.91-0.45,1.22-0.82c0.28-0.69,0.61-1.46,0.99-2.3c0.37-0.85,0.74-1.61,1.1-2.28c0.36-0.67,0.6-1.09,0.73-1.25
		c0.53-0.28,0.92-0.4,1.17-0.35c0.25,0.05,0.53,0.32,0.85,0.82c0.16,0.22,0.27,0.39,0.35,0.52c0.08,0.12,0.09,0.31,0.02,0.56
		c-0.06,0.25-0.23,0.64-0.49,1.17c-0.27,0.53-0.67,1.3-1.2,2.3c-0.16,0.31-0.36,0.71-0.61,1.18c0.12,0.03,0.31,0.05,0.56,0.05
		s0.56-0.02,0.94-0.05c0.34-0.06,0.78-0.12,1.32-0.16c0.53-0.05,0.95-0.04,1.27,0.02c0.72,0,1.25,0.13,1.6,0.4
		c0.34,0.27,0.53,0.71,0.56,1.34c0.06,0.35-0.01,0.55-0.21,0.61c-0.2,0.06-0.73,0.09-1.57,0.09c-0.28,0-0.72,0.02-1.32,0.05
		c-0.6,0.03-1.21,0.07-1.86,0.1c-0.64,0.03-1.19,0.07-1.64,0.12c-0.46,0.05-0.68,0.1-0.68,0.16c-0.09,0.06-0.24,0.36-0.45,0.89
		c-0.2,0.53-0.41,1.14-0.61,1.81c-0.2,0.68-0.38,1.28-0.54,1.81c-0.22,1.07-0.38,2.13-0.49,3.2c-0.11,1.07-0.13,1.99-0.07,2.77
		c0.06,0.78,0.24,1.33,0.52,1.64c0.28,0.28,0.83,0.34,1.64,0.16s1.47-0.46,1.98-0.87c0.56-0.47,1.03-0.71,1.39-0.71
		c0.36,0,0.56,0.16,0.61,0.49c0.05,0.33-0.13,0.79-0.54,1.39c-0.38,0.56-0.85,1.06-1.41,1.48c-0.56,0.42-1.15,0.72-1.76,0.89
		C296.03,59.65,295.46,59.66,294.93,59.51z"/>
	<path class="st0" d="M308.84,61.95c-1.03-0.16-1.73-0.54-2.09-1.15c-0.36-0.61-0.45-1.54-0.26-2.8c0.19-0.59,0.3-1.13,0.35-1.62
		s0.18-0.79,0.4-0.92c0.09-0.19,0.09-0.33,0-0.42c0-0.41,0.14-0.97,0.42-1.69c0.06-0.19,0.2-0.55,0.42-1.08
		c-0.16-0.25-0.16-0.45,0-0.61c0.16-0.16,0.32-0.31,0.49-0.45c0.17-0.14,0.18-0.31,0.02-0.49c-0.06-0.12,0.02-0.42,0.23-0.87
		c0.22-0.45,0.47-0.93,0.75-1.43c0.28-0.5,0.47-0.89,0.56-1.17c0-0.06,0.08-0.28,0.23-0.66c0.16-0.37,0.35-0.81,0.56-1.32
		c0.22-0.5,0.43-0.95,0.64-1.36c0.2-0.41,0.34-0.68,0.4-0.8c0.31-0.16,0.19-0.27-0.38-0.33c-0.56-0.06-1.16-0.08-1.78-0.05
		c-0.97-0.03-1.75-0.08-2.33-0.14c-0.58-0.06-1.06-0.2-1.43-0.42c-0.37-0.44-0.51-0.76-0.4-0.96c0.11-0.2,0.48-0.32,1.1-0.35
		c0.41-0.03,0.73-0.05,0.96-0.05s0.55-0.02,0.94-0.07c0.39-0.05,1.01-0.12,1.86-0.21l2.4-0.19l0.14-0.8
		c0.25-0.41,0.46-0.77,0.64-1.1c0.17-0.33,0.32-0.67,0.45-1.01c0.12-0.34,0.22-0.71,0.28-1.08c0.56-1.03,0.88-1.83,0.94-2.4
		c0.37-0.63,0.7-1.2,0.99-1.72c0.28-0.52,0.45-0.84,0.52-0.96c0.34-0.28,0.59-0.42,0.73-0.42s0.45,0.16,0.92,0.47
		c0.28,0.16,0.53,0.35,0.75,0.56c0.22,0.22,0.36,0.45,0.42,0.68c0.06,0.23-0.03,0.46-0.28,0.68c-0.06,0.13-0.16,0.35-0.28,0.68
		c-0.13,0.33-0.22,0.6-0.28,0.82c-0.19,0.22-0.42,0.57-0.68,1.06c-0.27,0.49-0.45,0.98-0.54,1.48c-0.25,0.53-0.49,1.01-0.7,1.43
		c-0.22,0.42-0.39,0.64-0.52,0.64c0.06,0.31,0.25,0.46,0.56,0.45c0.31-0.02,0.83-0.04,1.55-0.07c0.59-0.06,1.01-0.13,1.25-0.21
		c0.24-0.08,0.51-0.04,0.82,0.12c0.16,0.22,0.28,0.47,0.38,0.75c0.09,0.28,0.12,0.54,0.07,0.78c-0.05,0.24-0.18,0.4-0.4,0.49
		c-0.16,0-0.48,0.09-0.96,0.26c-0.49,0.17-1.09,0.28-1.81,0.31l-2.49,0.24l-0.8,1.6c-0.22,0.41-0.41,0.78-0.56,1.11
		c-0.16,0.33-0.27,0.52-0.33,0.59c0,0.19-0.1,0.47-0.31,0.85c-0.2,0.38-0.42,0.78-0.64,1.22c-0.19,0.53-0.52,1.24-0.99,2.12
		c-0.13,0-0.19,0.09-0.19,0.28c0.16,0.37,0.11,0.66-0.14,0.85c-0.16,0.09-0.34,0.31-0.56,0.66c0.12,0.13,0.15,0.28,0.07,0.47
		s-0.18,0.39-0.31,0.61c0,0.25-0.07,0.61-0.21,1.08c-0.14,0.47-0.29,0.91-0.45,1.32c0.03,0.56,0.06,0.92,0.09,1.08
		c0.03,0.16,0.11,0.22,0.24,0.19c0.16,0.03,0.3,0.03,0.42,0c0.13-0.03,0.25-0.05,0.38-0.05c0.44-0.19,0.2,0.91-0.71,3.29
		c-0.5,0.78-0.85,1.36-1.03,1.72C309.17,61.77,309,61.95,308.84,61.95z"/>
	<path class="st0" d="M328.44,57.96c-0.66,0.56-1.42,0.89-2.28,0.99c-0.86,0.09-1.7-0.04-2.52-0.4c-0.81-0.36-1.49-0.92-2.02-1.67
		c-0.53-0.69-0.88-1.48-1.03-2.37c-0.16-0.89-0.17-2.06-0.05-3.5c0.09-1.22,0.49-2.45,1.18-3.69c0.69-1.24,1.53-2.34,2.51-3.31
		c0.99-0.97,1.97-1.64,2.94-2.02c0.47-0.31,0.87-0.46,1.2-0.45c0.33,0.02,0.84,0.05,1.53,0.12c0.72,0.09,1.26,0.24,1.62,0.42
		c0.36,0.19,0.65,0.44,0.87,0.75c0.47,0.47,0.78,0.93,0.94,1.39c0.16,0.46,0.24,0.9,0.24,1.34c-0.13,0.69-0.59,1.53-1.39,2.52
		c-0.8,0.99-1.84,1.79-3.13,2.42c-0.69,0.22-1.44,0.31-2.26,0.28c-0.81-0.03-1.49-0.24-2.02-0.61c-0.59-0.25-0.99-0.21-1.17,0.12
		c-0.19,0.33-0.36,1.12-0.52,2.37c-0.12,1.19-0.03,2.06,0.28,2.61c0.31,0.55,0.74,0.87,1.27,0.96c0.63,0.12,1.12,0.21,1.48,0.26
		c0.36,0.05,0.81-0.09,1.34-0.4c0.5-0.31,0.81-0.49,0.94-0.54c0.13-0.05,0.23-0.11,0.31-0.19s0.27-0.27,0.59-0.59
		c0.22-0.22,0.39-0.38,0.52-0.49c0.12-0.11,0.27-0.16,0.42-0.16s0.3,0.07,0.42,0.21c0.12,0.14,0.25,0.24,0.38,0.31
		c0.31,0,0.38,0.19,0.21,0.56c-0.17,0.37-0.51,0.82-1.01,1.34C329.73,57.04,329.13,57.52,328.44,57.96z M328.39,47.99
		c0.34-0.16,0.71-0.38,1.08-0.68c0.37-0.3,0.7-0.63,0.96-0.99c0.27-0.36,0.4-0.67,0.4-0.92c0-0.44-0.2-0.81-0.61-1.1
		c-0.41-0.3-1.02-0.34-1.83-0.12c-0.34,0.09-0.74,0.32-1.17,0.68c-0.44,0.36-0.85,0.76-1.25,1.2c-0.39,0.44-0.71,0.83-0.94,1.18
		c-0.24,0.34-0.32,0.55-0.26,0.61c0.09,0.16,0.36,0.28,0.8,0.35c0.44,0.08,0.93,0.1,1.48,0.07
		C327.6,48.24,328.05,48.15,328.39,47.99z"/>
	<path class="st0" d="M336.34,57.96c-0.28-0.22-0.48-0.44-0.59-0.66c-0.11-0.22-0.12-0.64-0.02-1.27c0.09-0.88,0.22-1.65,0.38-2.33
		c0.15-0.67,0.34-1.45,0.56-2.33c0.06-0.37,0.24-1.02,0.54-1.93c0.3-0.91,0.67-1.9,1.11-2.96c0.44-1.07,0.88-2.08,1.32-3.03
		c0.44-0.95,0.81-1.67,1.13-2.14c0.25-0.19,0.55-0.27,0.92-0.24c0.36,0.03,0.67,0.17,0.92,0.42c0.34,0.28,0.4,0.78,0.16,1.48
		c-0.24,0.71-0.71,1.81-1.43,3.31c-0.38,0.85-0.66,1.48-0.85,1.9c-0.19,0.42-0.27,0.68-0.24,0.75c0.03,0.08,0.17,0.04,0.42-0.12
		c0.19-0.34,0.53-0.74,1.03-1.2c0.5-0.45,1.03-0.9,1.6-1.34c0.56-0.44,1.1-0.83,1.6-1.17c0.5-0.35,0.85-0.56,1.03-0.66
		c0.25-0.16,0.54-0.29,0.87-0.4c0.33-0.11,0.55-0.2,0.68-0.26c0.72-0.34,1.46-0.47,2.21-0.37s1.22,0.37,1.41,0.85
		c0.03,0.25,0.22,0.5,0.56,0.75c0.13,0,0.2,0.1,0.24,0.28c0,0.22-0.16,0.35-0.49,0.4c-0.33,0.05-0.74,0.09-1.25,0.12
		c-0.41,0.03-0.77,0.11-1.08,0.24c-0.31,0.13-0.69,0.28-1.13,0.47c-1.19,0.69-2.33,1.36-3.41,2.02s-2.12,1.54-3.13,2.63
		c-0.22,0.25-0.44,0.55-0.66,0.89c-0.22,0.34-0.46,0.72-0.71,1.13c-0.16,0.16-0.31,0.5-0.47,1.03c-0.16,0.53-0.29,1.04-0.4,1.53
		c-0.11,0.49-0.16,0.78-0.16,0.87c-0.19,0.59-0.39,1.03-0.61,1.32c-0.38,0.5-0.69,0.75-0.94,0.75
		C337.22,58.71,336.84,58.46,336.34,57.96z"/>
	<path class="st0" d="M367.41,58.19c-0.41,0.09-0.78,0.09-1.13,0c-0.35-0.09-0.66-0.25-0.94-0.47c-0.28-0.22-0.53-0.44-0.75-0.66
		c-0.22-0.25-0.28-0.48-0.19-0.68c0.09-0.2,0.25-0.31,0.47-0.31c0.13,0,0.21-0.13,0.26-0.4c0.05-0.27,0.1-0.76,0.16-1.48
		c0.06-0.44,0.15-0.82,0.26-1.15c0.11-0.33,0.16-0.56,0.16-0.68c0.03-0.09,0.07-0.35,0.12-0.77c0.05-0.42,0.13-0.79,0.26-1.11
		c0.13-0.56,0.31-1.29,0.56-2.19c0.25-0.89,0.51-1.77,0.78-2.63c0.27-0.86,0.48-1.53,0.64-2c0.06-0.34,0.2-0.78,0.42-1.32
		c0.22-0.53,0.41-0.96,0.56-1.27c0.31-0.88,0.73-1.93,1.25-3.15c0.52-1.22,1.04-2.44,1.57-3.66c0.53-1.22,1.01-2.26,1.43-3.13
		c0.42-0.86,0.7-1.39,0.82-1.57c0.25-0.25,0.56-0.36,0.92-0.33s0.71,0.22,1.06,0.56c0.28,0.34,0.41,0.71,0.38,1.1
		c-0.03,0.39-0.24,0.81-0.61,1.25c-0.12,0.22-0.27,0.49-0.42,0.82c-0.16,0.33-0.31,0.6-0.47,0.82c-0.25,0.75-0.56,1.49-0.92,2.21
		c-0.36,0.72-0.74,1.53-1.15,2.42c-0.41,0.89-0.85,2-1.32,3.31c-0.28,0.6-0.52,1.18-0.71,1.76c-0.19,0.58-0.34,0.95-0.47,1.1
		c-0.19,0.69-0.42,1.4-0.7,2.14c-0.28,0.74-0.49,1.48-0.61,2.23c0.66-0.63,1.22-1.18,1.69-1.64c1.22-1.32,2.45-2.4,3.69-3.24
		s2.26-1.29,3.08-1.32c0.44-0.03,0.92,0.08,1.43,0.33c0.52,0.25,0.99,0.56,1.43,0.92c0.44,0.36,0.74,0.74,0.89,1.15
		c0.25,0.56,0.35,1.17,0.31,1.81c-0.05,0.64-0.24,1.32-0.56,2.02c-0.33,0.71-0.78,1.42-1.34,2.14c-0.34,0.6-0.76,1.17-1.25,1.72
		c-0.49,0.55-0.9,0.95-1.25,1.2c-0.31,0.28-0.62,0.56-0.92,0.82c-0.3,0.27-0.54,0.48-0.73,0.64c-0.41,0.28-0.74,0.49-0.99,0.64
		c-0.25,0.14-0.6,0.29-1.03,0.45c-0.66,0.47-1.57,0.81-2.73,1.03C369.68,57.85,368.54,58.03,367.41,58.19z M368.63,55.79
		c0.22,0,0.62-0.05,1.2-0.14c0.58-0.1,1.12-0.33,1.62-0.71c1.47-0.75,2.74-1.69,3.81-2.8c1.07-1.11,1.87-2.22,2.42-3.34
		c0.55-1.11,0.79-2.03,0.73-2.75c-0.06-0.72-0.61-0.88-1.64-0.47c-1.03,0.41-2.29,1.35-3.76,2.82c-0.69,0.63-1.34,1.29-1.95,2
		c-0.61,0.71-1.18,1.37-1.72,2c-0.22,0.34-0.4,0.64-0.54,0.89c-0.14,0.25-0.23,0.5-0.26,0.75
		C368.29,55.21,368.32,55.79,368.63,55.79z"/>
	<path class="st0" d="M395.24,59.51c-0.22,0.12-0.51,0.08-0.87-0.14c-0.36-0.22-0.71-0.55-1.06-0.99c-0.22-0.38-0.37-0.78-0.45-1.22
		c-0.08-0.44-0.12-1.05-0.12-1.83c0.03-0.63,0.01-1.03-0.07-1.22c-0.08-0.19-0.26-0.16-0.54,0.07c-0.28,0.24-0.77,0.7-1.46,1.39
		c-0.78,0.78-1.53,1.4-2.23,1.83c-0.71,0.44-1.28,0.64-1.72,0.61c-0.22,0-0.46-0.12-0.73-0.35c-0.27-0.24-0.51-0.53-0.73-0.89
		c-0.22-0.36-0.41-0.73-0.56-1.1c-0.19-0.69-0.21-1.58-0.07-2.66s0.38-2.22,0.73-3.41c0.34-1.19,0.74-2.32,1.2-3.38
		c0.45-1.07,0.92-1.93,1.41-2.59c0.49-0.66,0.92-0.99,1.29-0.99c0.25,0,0.48,0.13,0.68,0.38c0.2,0.25,0.42,0.64,0.64,1.17
		c0.12,0.22,0.18,0.41,0.16,0.56c-0.02,0.16-0.15,0.34-0.4,0.56c-0.28,0.38-0.6,0.94-0.96,1.69c-0.36,0.75-0.7,1.57-1.03,2.44
		c-0.33,0.88-0.62,1.72-0.87,2.54c-0.25,0.81-0.42,1.48-0.52,2c-0.1,0.52-0.08,0.78,0.05,0.78c0.44,0,0.96-0.18,1.57-0.54
		c0.61-0.36,1.2-0.81,1.76-1.34c0.66-0.66,1.25-1.38,1.76-2.16c0.52-0.78,1.04-1.61,1.57-2.49c0.41-0.63,0.84-1.32,1.29-2.07
		c0.45-0.75,0.74-1.28,0.87-1.6c0.44-0.81,0.77-1.37,0.99-1.67c0.22-0.3,0.48-0.49,0.8-0.59c0.16,0,0.38,0,0.66,0
		c0.19,0.03,0.41,0.17,0.66,0.42c0.25,0.13,0.39,0.24,0.42,0.35c0.03,0.11,0.05,0.24,0.05,0.4c-0.12,0.31-0.32,0.78-0.59,1.39
		c-0.27,0.61-0.46,1.06-0.59,1.34c-0.6,1.35-1.18,2.67-1.76,3.97c-0.58,1.3-0.99,2.62-1.25,3.97c-0.06,0.44-0.07,0.95-0.02,1.53
		c0.05,0.58,0.13,0.99,0.26,1.25c0.09,0.19,0.21,0.4,0.35,0.64s0.31,0.43,0.49,0.59c0.28,0.19,0.34,0.39,0.16,0.61
		c-0.17,0.22-0.4,0.4-0.68,0.54C395.52,59.44,395.33,59.51,395.24,59.51z"/>
	<path class="st0" d="M405.91,58.94c-1.57,0-2.71-0.56-3.43-1.69c-0.22-0.31-0.32-0.64-0.31-0.96c0.02-0.33,0.11-0.55,0.28-0.68
		c0.17-0.12,0.38-0.02,0.64,0.33c0.44,0.25,1.07,0.38,1.88,0.38c0.41,0,0.83-0.04,1.27-0.12c0.44-0.08,0.88-0.2,1.32-0.35
		c0.47-0.22,0.78-0.42,0.94-0.59c0.16-0.17,0.13-0.32-0.09-0.45h0.05c-0.82-0.22-1.64-0.57-2.47-1.06c-0.83-0.49-1.54-1.02-2.14-1.6
		c-0.59-0.58-0.94-1.11-1.03-1.58c-0.25-0.97-0.19-1.97,0.19-2.98c0.37-1.02,0.91-1.92,1.6-2.7c0.25-0.16,0.56-0.35,0.94-0.59
		c0.38-0.24,0.67-0.37,0.89-0.4v0.05c0.59-0.63,1.32-1.13,2.19-1.5c0.86-0.38,1.78-0.72,2.75-1.03l0.71-0.09
		c0.38-0.06,0.69-0.09,0.94-0.09c-0.03,0,0.03,0.02,0.19,0.07c0.16,0.05,0.3,0.09,0.42,0.12c0.19,0.09,0.34,0.14,0.47,0.14
		c0.41,0.06,0.78,0.25,1.13,0.56c0.34,0.31,0.62,0.68,0.82,1.1c0.2,0.42,0.27,0.82,0.21,1.2c-0.06,0.59-0.24,1.13-0.54,1.6
		c-0.3,0.47-0.65,0.74-1.06,0.8c0.06-0.03,0.02-0.09-0.12-0.16c-0.14-0.08-0.29-0.16-0.45-0.26l-0.14,0.09
		c-0.03-0.15-0.08-0.3-0.14-0.42c-0.09-0.19-0.14-0.4-0.14-0.64s0.02-0.49,0.05-0.77c0.06-0.34,0.07-0.55,0.02-0.61
		c-0.05-0.06-0.26-0.11-0.63-0.14c-0.44-0.1-1.07-0.02-1.91,0.23c-0.83,0.25-1.53,0.6-2.09,1.03c-0.69,0.44-1.27,0.85-1.74,1.25
		c-0.47,0.39-0.85,0.77-1.13,1.13c-0.28,0.36-0.53,0.78-0.75,1.25c-0.16,0.22-0.29,0.43-0.4,0.63c-0.11,0.2-0.17,0.38-0.17,0.54
		c0,0.34,0.26,0.7,0.78,1.06c0.52,0.36,1.29,0.77,2.33,1.25c0.81,0.35,1.5,0.72,2.07,1.13c0.56,0.41,0.95,0.88,1.17,1.41
		c0.06,0.13,0.09,0.28,0.07,0.45c-0.02,0.17-0.06,0.29-0.12,0.35c0.06,0.06,0.09,0.11,0.09,0.14V55.7c0.25,0.38,0.26,0.77,0.02,1.18
		s-0.63,0.76-1.17,1.06c-0.55,0.3-1.21,0.52-2,0.68h0.05c-0.41,0.13-0.81,0.21-1.2,0.26S406.25,58.94,405.91,58.94z"/>
	<path class="st0" d="M418.51,57.3c-0.13,0-0.36-0.08-0.71-0.24c0-0.12-0.04-0.28-0.12-0.47s-0.12-0.34-0.12-0.47
		c-0.22-0.12-0.34-0.26-0.38-0.4c-0.03-0.14,0.02-0.38,0.14-0.73c0.19-0.31,0.44-0.82,0.75-1.53c0.31-0.71,0.64-1.47,0.99-2.3
		c0.35-0.83,0.68-1.65,0.99-2.47c0.31-0.81,0.58-1.51,0.8-2.09c0.22-0.58,0.34-0.93,0.38-1.06c0-0.13,0.05-0.28,0.14-0.47
		s0.2-0.34,0.33-0.47c0.25-0.22,0.52-0.24,0.8-0.07c0.28,0.17,0.52,0.46,0.73,0.85c0.2,0.39,0.31,0.82,0.31,1.29
		c0,0.22-0.16,0.77-0.47,1.67s-0.73,1.95-1.25,3.17c-0.52,1.22-1.09,2.46-1.72,3.71c-0.47,0.91-0.77,1.48-0.89,1.72
		C419.09,57.18,418.85,57.3,418.51,57.3z M425.41,39.48c-0.37,0-0.77-0.15-1.2-0.45c-0.42-0.3-0.78-0.67-1.08-1.13
		c-0.3-0.45-0.45-0.92-0.45-1.39c0-0.16,0.09-0.37,0.28-0.66c0.19-0.28,0.38-0.56,0.56-0.85c0.19-0.28,0.28-0.46,0.28-0.52
		c0.25,0,0.45,0.01,0.59,0.02s0.32,0.09,0.54,0.21c0.35,0.78,0.78,1.43,1.29,1.93c0.52,0.5,0.78,0.92,0.78,1.27
		c0,0.69-0.06,1.12-0.19,1.29C426.7,39.4,426.23,39.48,425.41,39.48z"/>
	<path class="st0" d="M443.04,57.44c-0.63,0-1.15-0.13-1.55-0.4c-0.41-0.27-0.75-0.71-1.03-1.34c-0.13-0.44-0.23-0.93-0.31-1.48
		c-0.08-0.55-0.12-1.07-0.12-1.55c0-0.49,0.05-0.81,0.14-0.96c0.13-0.12,0.18-0.35,0.16-0.68c-0.02-0.33-0.02-0.68-0.02-1.06
		c-0.03-0.63-0.18-0.98-0.45-1.06c-0.27-0.08-0.65,0.02-1.15,0.31c-0.56,0.34-1.3,0.81-2.21,1.39c-0.91,0.58-1.86,1.21-2.84,1.9
		c-0.99,0.69-1.92,1.41-2.8,2.16c-0.69,0.75-1.1,1.32-1.25,1.72c-0.14,0.39-0.34,0.59-0.59,0.59c-0.25,0.12-0.46,0.13-0.64,0.02
		c-0.17-0.11-0.42-0.29-0.73-0.54c-0.22-0.25-0.44-0.49-0.66-0.73c-0.22-0.23-0.36-0.41-0.42-0.54c0-0.16,0.05-0.49,0.14-0.99
		c0.09-0.5,0.21-1,0.35-1.51c0.14-0.5,0.24-0.83,0.31-0.99c0.15,0,0.29-0.16,0.4-0.47c0.11-0.31,0.29-0.66,0.54-1.03
		c0.06-0.38,0.23-0.89,0.49-1.53c0.27-0.64,0.51-1.21,0.73-1.72c0.44-0.75,0.74-1.38,0.92-1.88c0.17-0.5,0.29-1.13,0.35-1.88
		c-0.03-0.12,0-0.24,0.09-0.35c0.09-0.11,0.2-0.16,0.33-0.16c0.25-0.25,0.55-0.32,0.89-0.21c0.34,0.11,0.66,0.35,0.94,0.73
		c0.56,0.75,0.79,1.53,0.68,2.33c-0.11,0.8-0.62,1.94-1.53,3.41c-0.22,0.5-0.38,0.89-0.49,1.15c-0.11,0.27-0.16,0.48-0.16,0.64
		c0.66-0.44,1.2-0.81,1.62-1.1c0.42-0.3,0.76-0.53,1.01-0.68c0.16-0.16,0.52-0.44,1.08-0.85c0.56-0.41,1.17-0.81,1.81-1.2
		c0.64-0.39,1.12-0.62,1.43-0.68c0.25-0.12,0.52-0.24,0.8-0.35c0.28-0.11,0.49-0.16,0.61-0.16c0.25,0,0.57,0.13,0.96,0.4
		c0.39,0.27,0.76,0.58,1.11,0.94c0.34,0.36,0.55,0.67,0.61,0.92c0,0.13,0.01,0.25,0.02,0.38c0.02,0.12,0.04,0.25,0.07,0.37
		c0.13,0.41,0.2,0.96,0.21,1.65c0.02,0.69-0.01,1.32-0.07,1.88c-0.06,0.56-0.17,0.89-0.33,0.99c0.03,0.16,0.11,0.24,0.24,0.24
		c0,0.12,0,0.2,0,0.23c-0.16,0-0.22,0.13-0.19,0.4c0.03,0.27,0.13,0.56,0.3,0.87s0.35,0.56,0.54,0.75c0.38,0.38,0.53,0.73,0.47,1.06
		C443.83,57.09,443.54,57.31,443.04,57.44z"/>
	<path class="st0" d="M455.83,57.96c-0.66,0.56-1.42,0.89-2.28,0.99c-0.86,0.09-1.7-0.04-2.52-0.4c-0.81-0.36-1.49-0.92-2.02-1.67
		c-0.53-0.69-0.88-1.48-1.03-2.37c-0.16-0.89-0.17-2.06-0.05-3.5c0.09-1.22,0.49-2.45,1.18-3.69c0.69-1.24,1.53-2.34,2.51-3.31
		c0.99-0.97,1.97-1.64,2.94-2.02c0.47-0.31,0.87-0.46,1.2-0.45c0.33,0.02,0.84,0.05,1.53,0.12c0.72,0.09,1.26,0.24,1.62,0.42
		c0.36,0.19,0.65,0.44,0.87,0.75c0.47,0.47,0.78,0.93,0.94,1.39c0.16,0.46,0.24,0.9,0.24,1.34c-0.13,0.69-0.59,1.53-1.39,2.52
		c-0.8,0.99-1.84,1.79-3.13,2.42c-0.69,0.22-1.44,0.31-2.26,0.28c-0.81-0.03-1.49-0.24-2.02-0.61c-0.59-0.25-0.99-0.21-1.17,0.12
		c-0.19,0.33-0.36,1.12-0.52,2.37c-0.12,1.19-0.03,2.06,0.28,2.61c0.31,0.55,0.74,0.87,1.27,0.96c0.63,0.12,1.12,0.21,1.48,0.26
		c0.36,0.05,0.81-0.09,1.34-0.4c0.5-0.31,0.81-0.49,0.94-0.54c0.13-0.05,0.23-0.11,0.31-0.19s0.27-0.27,0.59-0.59
		c0.22-0.22,0.39-0.38,0.52-0.49c0.12-0.11,0.27-0.16,0.42-0.16c0.16,0,0.3,0.07,0.42,0.21c0.12,0.14,0.25,0.24,0.38,0.31
		c0.31,0,0.38,0.19,0.21,0.56c-0.17,0.37-0.51,0.82-1.01,1.34C457.11,57.04,456.52,57.52,455.83,57.96z M455.78,47.99
		c0.34-0.16,0.71-0.38,1.08-0.68c0.37-0.3,0.7-0.63,0.96-0.99c0.27-0.36,0.4-0.67,0.4-0.92c0-0.44-0.2-0.81-0.61-1.1
		c-0.41-0.3-1.02-0.34-1.83-0.12c-0.34,0.09-0.74,0.32-1.17,0.68c-0.44,0.36-0.85,0.76-1.25,1.2c-0.39,0.44-0.71,0.83-0.94,1.18
		c-0.24,0.34-0.32,0.55-0.26,0.61c0.09,0.16,0.36,0.28,0.8,0.35c0.44,0.08,0.93,0.1,1.48,0.07
		C454.99,48.24,455.44,48.15,455.78,47.99z"/>
	<path class="st0" d="M467.3,59.18c-0.78,0.06-1.53,0.02-2.23-0.14c-0.71-0.16-1.3-0.43-1.79-0.82c-0.49-0.39-0.82-0.87-1.01-1.43
		c-0.22-0.44-0.33-0.74-0.33-0.92s0.11-0.32,0.33-0.45c0.25,0,0.48,0.07,0.68,0.21c0.2,0.14,0.48,0.29,0.82,0.45
		c0.47,0.41,1.04,0.63,1.72,0.66c0.67,0.03,1.29-0.08,1.86-0.33c0.56-0.25,0.88-0.56,0.94-0.94c0-0.12-0.05-0.34-0.14-0.66
		c-0.09-0.31-0.2-0.64-0.33-0.99c-0.85-1.19-1.47-2.37-1.86-3.55c-0.39-1.18-0.59-2.14-0.59-2.89c0-0.56,0.17-1.17,0.52-1.81
		c0.34-0.64,0.81-1.18,1.41-1.62c0.56-0.59,1.19-1.13,1.88-1.6c0.69-0.47,1.39-0.88,2.09-1.22c0.71-0.34,1.34-0.59,1.9-0.75
		c0.34,0,0.8,0.05,1.36,0.14c0.56,0.09,0.96,0.2,1.17,0.33c0.35,0.13,0.68,0.46,0.99,1.01c0.31,0.55,0.47,1.09,0.47,1.62
		c0,0.22-0.06,0.5-0.19,0.85c-0.13,0.34-0.33,0.75-0.61,1.22c-0.12,0.34-0.27,0.67-0.42,0.96c-0.16,0.3-0.24,0.51-0.24,0.63
		c-0.16,0.35-0.37,0.51-0.63,0.49c-0.27-0.02-0.53-0.15-0.8-0.42c-0.27-0.27-0.48-0.59-0.64-0.96c-0.13-0.47-0.17-0.85-0.14-1.15
		c0.03-0.3,0.16-0.62,0.38-0.96c0.34-0.34,0.52-0.58,0.52-0.7c0-0.12-0.17-0.19-0.52-0.19c-0.22,0-0.62,0.13-1.2,0.4
		c-0.58,0.27-1.19,0.61-1.83,1.03c-0.64,0.42-1.2,0.87-1.67,1.34c-0.59,0.56-0.95,0.97-1.06,1.22c-0.11,0.25-0.16,0.64-0.16,1.17
		c0,0.44,0.1,0.99,0.31,1.64c0.2,0.66,0.42,1.1,0.64,1.32c0.44,0.85,0.81,1.51,1.13,1.97c0.91,2.01,1.14,3.45,0.7,4.32
		C470.29,58.55,469.15,59.05,467.3,59.18z"/>
	<path class="st0" d="M483.19,58.94c-1.57,0-2.71-0.56-3.43-1.69c-0.22-0.31-0.32-0.64-0.31-0.96c0.02-0.33,0.11-0.55,0.28-0.68
		c0.17-0.12,0.38-0.02,0.64,0.33c0.44,0.25,1.07,0.38,1.88,0.38c0.41,0,0.83-0.04,1.27-0.12c0.44-0.08,0.88-0.2,1.32-0.35
		c0.47-0.22,0.78-0.42,0.94-0.59c0.16-0.17,0.13-0.32-0.09-0.45h0.05c-0.82-0.22-1.64-0.57-2.47-1.06c-0.83-0.49-1.54-1.02-2.14-1.6
		c-0.59-0.58-0.94-1.11-1.03-1.58c-0.25-0.97-0.19-1.97,0.19-2.98c0.37-1.02,0.91-1.92,1.6-2.7c0.25-0.16,0.56-0.35,0.94-0.59
		c0.38-0.24,0.67-0.37,0.89-0.4v0.05c0.59-0.63,1.32-1.13,2.19-1.5c0.86-0.38,1.78-0.72,2.75-1.03l0.71-0.09
		c0.38-0.06,0.69-0.09,0.94-0.09c-0.03,0,0.03,0.02,0.19,0.07c0.16,0.05,0.3,0.09,0.42,0.12c0.19,0.09,0.34,0.14,0.47,0.14
		c0.41,0.06,0.78,0.25,1.13,0.56c0.34,0.31,0.62,0.68,0.82,1.1c0.2,0.42,0.27,0.82,0.21,1.2c-0.06,0.59-0.24,1.13-0.54,1.6
		c-0.3,0.47-0.65,0.74-1.06,0.8c0.06-0.03,0.02-0.09-0.12-0.16c-0.14-0.08-0.29-0.16-0.45-0.26l-0.14,0.09
		c-0.03-0.15-0.08-0.3-0.14-0.42c-0.09-0.19-0.14-0.4-0.14-0.64s0.02-0.49,0.05-0.77c0.06-0.34,0.07-0.55,0.02-0.61
		c-0.05-0.06-0.26-0.11-0.63-0.14c-0.44-0.1-1.07-0.02-1.91,0.23c-0.83,0.25-1.53,0.6-2.09,1.03c-0.69,0.44-1.27,0.85-1.74,1.25
		c-0.47,0.39-0.85,0.77-1.13,1.13c-0.28,0.36-0.53,0.78-0.75,1.25c-0.16,0.22-0.29,0.43-0.4,0.63c-0.11,0.2-0.17,0.38-0.17,0.54
		c0,0.34,0.26,0.7,0.78,1.06c0.52,0.36,1.29,0.77,2.33,1.25c0.81,0.35,1.5,0.72,2.07,1.13c0.56,0.41,0.95,0.88,1.17,1.41
		c0.06,0.13,0.09,0.28,0.07,0.45c-0.02,0.17-0.06,0.29-0.12,0.35c0.06,0.06,0.09,0.11,0.09,0.14V55.7c0.25,0.38,0.26,0.77,0.02,1.18
		c-0.24,0.41-0.63,0.76-1.17,1.06c-0.55,0.3-1.21,0.52-2,0.68h0.05c-0.41,0.13-0.81,0.21-1.2,0.26
		C483.9,58.92,483.53,58.94,483.19,58.94z"/>
</g>
<g>
	<path class="st1" d="M77.65,45.19H55.19c-0.05,0.59-0.08,1.09-0.08,1.7c0,0.61,0.04,1.07,0.08,1.66h22.46
		c0.04-0.6,0.03-1.01,0.03-1.61C77.68,46.34,77.69,45.79,77.65,45.19"/>
	<path class="st1" d="M42.25,46.88c0-0.6,0.02-1.1,0.06-1.69H16.24c-0.04,0.6-0.05,1.11-0.05,1.71c0,0.6,0.01,1.05,0.05,1.65H42.3
		C42.27,47.95,42.25,47.48,42.25,46.88"/>
	<path class="st1" d="M60.23,19.19c-3.99-1.9-8.59-3-13.3-3c-15.25,0-27.97,11.11-30.34,25.69h26.09
		C44.46,31.69,51.35,23.03,60.23,19.19"/>
	<path class="st1" d="M77.27,41.88c-0.92-5.63-3.77-11.41-7.23-15.24c-6.46,2.07-12.53,7.97-14.29,15.24H77.27z"/>
	<path class="st1" d="M70.23,66.98c0.52-0.62,0.96-1.1,1.41-1.72c2.31-3.17,3.77-6.18,4.91-10.01c0.35-1.28,0.53-2.07,0.74-3.39
		h-21.5C57.92,59.74,64.26,64.9,70.23,66.98"/>
	<path class="st1" d="M42.69,51.86H16.58C18.94,66.44,31.69,77.7,46.95,77.7c4.71,0,9.47-1.26,13.46-3.15
		C50.86,70.2,44.43,61.64,42.69,51.86"/>
</g>
</svg>
